<?xml version="1.0" encoding="utf-8"?>
<!-- Generator: Adobe Illustrator 27.2.0, SVG Export Plug-In . SVG Version: 6.00 Build 0)  -->
<svg version="1.1" id="Layer_1" xmlns="http://www.w3.org/2000/svg" xmlns:xlink="http://www.w3.org/1999/xlink" x="0px" y="0px"
	 viewBox="0 0 1425.7 239.8" style="enable-background:new 0 0 1425.7 239.8;" xml:space="preserve">
<style type="text/css">
	.st0{fill:#FFFFFF;}
</style>
<g>
	<path class="st0" d="M376.7,62.8c-36.9,0-61.6,23.9-61.6,58.4s24.7,58.4,61.6,58.4s61.6-23.6,61.6-58.2
		C438.3,86.7,413.6,62.8,376.7,62.8z M376.7,160.8c-23.1,0-38.8-15.9-38.8-39.3c0-23.6,15.7-39.8,38.8-39.8
		c23.1,0,38.8,16.2,38.8,39.8C415.5,144.8,399.8,160.8,376.7,160.8z"/>
	<path class="st0" d="M589.8,158.1c-5.8-0.3-8-3.5-8-11.7v-24.7c0-36.1-23.4-59-60.6-59c-36.7,0-62.2,22-62.2,60
		c0,34.3,22,55,56.3,55c21.8,0,36.9-7.7,46-19.9c2.1,12.8,10.4,19.1,22.6,19.1c8.5,0,11.7-4.2,12.2-8.8
		C596.4,163.7,594,158.7,589.8,158.1z M519.1,159.4c-21.8,0-38.3-13-38.3-38c0-25.2,16.2-40.6,40.4-40.6c23.1,0,39.3,14.3,39.3,39
		C560.5,143.5,543.3,159.4,519.1,159.4z"/>
	<path class="st0" d="M677.4,62.8c-37.5,0-60,18.9-60,61.4v42.5c0,6.9,4.2,10.4,10.9,10.4s10.9-3.5,10.9-10.4v-41.4
		c0-23.4,12.2-40.9,38.3-40.9c7.4,0,10.4-5.3,10.4-10.9C687.8,68.1,684.9,62.8,677.4,62.8z"/>
	<path class="st0" d="M757.9,62.8c-36.4,0-61.6,24.4-61.6,59.8c0,34.3,23.9,56.6,57.9,56.6c19.4,0,34.3-7.4,43-21.5v9.6
		c0,31.1-24.4,42.5-49.4,42.5c-18.3,0-29.2-3.2-39.8-6.6c-8.2-2.1-13,3.5-13,9c0,3.7,2.1,7.2,6.4,8.5c10.4,4,25.8,8,46.2,8
		c35.6,0,71.7-14.3,71.7-61.4v-45.4C819.3,89.1,795.4,62.8,757.9,62.8z M757.9,159.4c-21.8,0-38.8-14.9-38.8-38.8
		c0-23.6,16.7-39,38.8-39c21.8,0,39,16.2,39,39C797,143.8,780,159.4,757.9,159.4z"/>
	<path class="st0" d="M975.5,158.1c-5.8-0.3-8-3.5-8-11.7v-24.7c0-36.1-23.4-59-60.6-59c-36.7,0-62.2,22-62.2,60
		c0,34.3,22,55,56.3,55c21.8,0,36.9-7.7,46-19.9c2.1,12.8,10.4,19.1,22.6,19.1c8.5,0,11.7-4.2,12.2-8.8
		C982.1,163.7,979.7,158.7,975.5,158.1z M904.8,159.4c-21.8,0-38.3-13-38.3-38c0-25.2,16.2-40.6,40.4-40.6c23.1,0,39.3,14.3,39.3,39
		C946.2,143.5,929,159.4,904.8,159.4z"/>
	<path class="st0" d="M1058.1,62.8c-32.9,0-55,17.3-55,55.8v47.8c0,7.2,4.8,10.6,10.9,10.6s11.2-3.7,11.2-10.6v-47.8
		c0-24.7,12.5-36.1,32.9-36.1s32.9,11.4,32.9,36.1v47.8c0,7.2,5,10.6,11.2,10.6c6.1,0,10.9-3.5,10.9-10.6v-47.8
		C1113.1,80,1091,62.8,1058.1,62.8z"/>
	<path class="st0" d="M1156.1,40.2c7.4,0,13.3-4.8,13.3-13c0-8-5.8-13.3-13.3-13.3c-7.7,0-13.5,5.3-13.5,13.3
		C1142.5,35.4,1148.4,40.2,1156.1,40.2z"/>
	<path class="st0" d="M1174.4,157.3c-5.3-0.3-7.7-3.2-7.7-11.4V75.8c0-6.9-4-10.4-10.9-10.4s-11.2,3.2-11.2,10.4v74.6
		c0,17.5,9.3,26.6,23.9,26.6c8.8,0,12-4.5,12.5-9.3C1181.3,163.2,1178.9,158.1,1174.4,157.3z"/>
	<path class="st0" d="M1222.2,95.2c0-11.4,15.1-12.2,24.4-12.2c12.8,0,22.3,2.4,32.4,5.8c6.9,2.4,11.7-3.5,11.7-9.3
		c0-3.7-1.9-7.2-6.1-9c-9.8-4.5-22.6-7.2-38-7.2c-16.5,0-47.8,2.9-47.8,32.4c0,41.2,72.3,22,72.3,47.3c0,12-12.2,16.5-28.2,16.5
		c-13.8,0-24.7-2.4-35.1-5.6c-7.7-2.7-12.8,3.2-12.8,9.3c0,3.7,1.9,7.2,6.1,9c9.6,3.2,22.3,6.6,41.4,6.6c22.6,0,51.8-6.6,51.8-35.3
		C1294.5,99.4,1222.2,116.9,1222.2,95.2z"/>
	<path class="st0" d="M1412.2,148.8c-6.4,3.7-15.9,9.3-33.2,9.3c-24.4,0-38.8-11.2-42.2-28.4c12,8,24.7,10.6,41.4,10.6
		c28.2,0,47.5-12,47.5-38c0-25-21-39.6-50.7-39.6c-39.8,0-60.6,25.8-60.6,58.4c0,33.5,22.6,56.6,61.4,56.6c22,0,37.7-6.1,45.2-12
		c2.7-2.1,3.7-5,3.7-8C1424.7,151.5,1419.3,145.6,1412.2,148.8z M1375.2,81.9c18.6,0,29,8.2,29,19.9c0,11.4-9.6,18.9-29.2,18.9
		c-14.3,0-25-2.7-38.3-9.3C1339.6,94.6,1351.1,81.9,1375.2,81.9z"/>
	<path class="st0" d="M145.1,193.5l-4.2,2.4c-1,0.5-2,0.1-2.5-0.7l-2.3-3.9l1.7-1l-13.9-7.2c-19-9.7-34.9-24.5-46.2-42.7L50.4,95.9
		c-2.9-4.7-4.2-10.3-3-15.7c1.3-5.7,4.9-10.5,9.9-13.5L88,49c4.8-2.8,10.4-3.8,15.8-2.5c5.7,1.4,10.5,5.1,13.3,10.3l25.1,46.5
		c10.2,18.8,14.9,40.1,14,61.3l-0.7,15.7l1.7-1l2.3,3.9c0.5,1,0.1,2-0.7,2.5l-4.2,2.4l23.3,40.4h3.5h6.4c14.8,0,26.9-12.1,26.9-26.9
		v-161c0.1-14.8-12-26.9-26.8-26.9h-161C12.1,13.9,0,26,0,40.8v161.1c0,14.8,12.1,26.9,26.9,26.9h138.5L145.1,193.5z"/>
</g>
</svg>
